<svg width="1527" height="241" viewBox="0 0 1527 241" fill="none" xmlns="http://www.w3.org/2000/svg">
<path d="M1299.44 117.586H1320.44V124.086C1320.44 127.686 1320.64 130.586 1320.94 130.586C1321.24 130.586 1323.04 128.886 1324.84 126.786C1337.44 112.886 1359.34 112.686 1373.04 126.286C1381.44 134.686 1385.44 145.986 1385.44 161.286C1385.44 177.586 1381.94 187.986 1373.44 196.986C1360.34 210.786 1340.44 211.786 1327.24 199.086C1325.24 197.186 1323.34 195.586 1323.04 195.586C1322.74 195.586 1322.44 205.686 1322.44 218.086V240.586H1299.44V117.586ZM1351.14 188.986C1359.04 185.186 1363.04 174.386 1362.24 159.086C1361.24 142.186 1354.54 133.586 1342.24 133.586C1335.14 133.586 1329.94 136.686 1325.94 142.986C1323.24 147.486 1322.94 148.786 1322.64 158.586C1322.34 166.486 1322.64 170.886 1323.84 174.986C1325.64 181.186 1330.34 187.186 1334.94 189.186C1339.14 190.986 1346.94 190.886 1351.14 188.986Z" fill="#269822"/>
<path d="M201.643 210.086C186.943 206.886 177.043 196.886 172.943 180.886C171.043 173.486 170.943 150.986 172.843 144.086C176.343 130.886 182.943 122.386 193.843 117.086C199.543 114.286 202.743 113.286 208.643 112.886C215.643 112.386 216.143 112.486 216.743 114.486C217.143 116.086 218.043 116.586 220.843 116.586C226.043 116.586 234.743 119.886 240.343 123.986C249.843 130.986 255.243 142.886 256.143 158.886L256.743 168.586H240.643C226.743 168.586 224.543 168.786 225.043 170.086C225.543 171.386 223.943 171.586 213.543 171.586H201.443L202.943 175.386C205.043 180.286 209.943 185.286 214.243 186.686C217.043 187.586 218.343 187.486 221.643 185.986C225.543 184.286 225.743 184.286 227.043 185.986C228.243 187.686 228.443 187.586 230.343 184.486C231.543 182.586 232.543 180.686 232.743 180.186C232.943 179.686 237.743 179.786 244.243 180.586L255.343 181.886L253.943 185.186C250.243 193.986 243.543 200.886 234.943 204.686C231.943 205.986 230.443 207.286 230.443 208.486C230.443 209.586 229.443 210.586 228.243 210.986C224.243 211.986 208.143 211.486 201.643 210.086ZM233.943 150.386C232.943 144.486 229.543 138.586 225.543 135.886C221.743 133.286 218.943 132.886 219.743 134.986C220.143 135.986 219.143 136.486 216.343 136.886C211.743 137.486 206.043 141.486 203.943 145.586C201.043 151.286 201.443 151.586 212.443 151.586C220.643 151.586 222.443 151.886 222.443 153.086C222.443 154.286 223.743 154.586 228.543 154.586H234.643L233.943 150.386Z" fill="black"/>
<path d="M304.443 207.486C296.243 206.386 286.743 201.786 281.943 196.486C266.443 179.286 266.443 145.486 281.943 128.786C291.043 118.886 303.543 114.586 317.443 116.586C338.743 119.586 350.743 134.186 352.143 158.886L352.743 168.586H293.243L293.943 172.886C294.943 178.886 297.843 184.086 302.043 187.286C305.043 189.486 306.943 190.086 312.343 190.386C320.243 190.786 324.443 188.686 327.143 183.086C329.043 179.086 329.643 178.986 343.143 180.886L351.343 182.086L349.543 186.086C341.943 202.586 325.643 210.286 304.443 207.486ZM329.943 150.386C328.243 139.886 321.743 133.586 312.643 133.586C302.743 133.586 295.643 139.986 294.643 149.586L294.143 154.586H330.643L329.943 150.386Z" fill="black"/>
<path d="M462.543 207.586C452.243 205.486 445.243 199.686 441.743 190.686C440.343 186.786 440.043 181.086 439.643 151.886L439.243 117.586H462.443L462.543 145.886C462.543 180.086 462.943 182.786 467.843 187.286C470.943 190.186 472.043 190.586 476.943 190.586C483.543 190.586 487.943 188.886 491.643 184.986C496.443 179.786 496.743 177.886 497.243 146.886L497.643 117.586H520.443V206.586H498.443V193.386L492.943 198.386C484.643 205.986 472.743 209.586 462.543 207.586Z" fill="black"/>
<path d="M570.443 207.586C561.143 206.386 553.343 203.186 547.543 197.986C543.143 193.986 537.443 185.086 537.443 181.986C537.443 181.286 540.843 180.386 546.243 179.686C559.543 177.986 559.643 177.986 561.943 182.786C564.943 188.986 568.243 190.986 576.443 191.386C585.543 191.886 589.743 191.086 593.443 187.986C596.943 184.986 597.543 179.886 594.643 177.286C593.743 176.386 585.943 173.886 577.443 171.686C560.443 167.386 552.643 164.386 547.743 160.186C538.043 151.986 537.943 135.286 547.543 125.686C554.743 118.386 569.443 114.786 585.043 116.586C600.143 118.186 608.043 122.986 613.443 133.886L616.543 140.086L608.743 141.286C596.343 143.086 595.143 142.986 593.243 139.586C590.343 134.486 585.943 132.586 577.143 132.586C567.843 132.586 562.743 134.386 561.843 137.986C560.343 143.986 562.843 145.386 582.943 150.486C607.443 156.686 615.543 161.686 618.443 172.186C622.643 187.186 611.243 203.086 593.743 206.486C586.043 207.986 577.443 208.386 570.443 207.586Z" fill="black"/>
<path d="M658.243 207.586C651.743 206.486 646.843 203.186 644.143 198.186C642.043 194.286 641.943 192.786 641.643 164.886L641.343 135.586H630.443V117.586H641.443V100.786L652.743 94.1859L663.943 87.5859L664.543 117.586H680.443V135.586H664.443V160.386C664.443 183.186 664.643 185.386 666.243 186.886C668.343 188.786 673.943 189.086 677.843 187.586L680.343 186.686L681.143 194.886C681.543 199.386 681.943 203.486 681.943 204.086C681.943 206.486 665.943 208.786 658.243 207.586Z" fill="black"/>
<path d="M905.943 207.586C896.643 206.186 888.243 200.186 885.043 192.386C882.543 186.386 882.943 176.886 886.043 170.786C890.243 162.286 896.943 158.686 916.443 154.586C921.643 153.486 928.843 151.786 932.343 150.886L938.643 149.186L938.143 144.286C937.843 140.786 937.043 138.686 935.043 136.786C932.543 134.286 931.843 134.086 922.843 134.086C913.443 134.086 913.243 134.086 910.643 137.186C909.143 138.886 907.443 141.086 906.843 142.086C905.843 143.886 905.243 143.886 895.643 142.686C890.043 141.986 885.443 141.186 885.443 140.886C885.443 140.586 886.843 137.586 888.443 134.086C893.643 123.086 901.243 118.286 915.643 116.686C931.943 114.786 946.843 117.886 953.843 124.386C959.543 129.786 959.843 131.386 960.543 164.086C961.143 193.686 961.443 196.386 964.943 204.886C965.643 206.486 964.943 206.586 954.343 206.386L943.043 206.086L941.743 201.686C941.043 199.286 940.243 197.086 940.043 196.886C939.743 196.586 937.843 197.786 935.743 199.486C927.343 206.186 916.443 209.186 905.943 207.586ZM929.143 189.486C935.643 186.286 937.743 182.786 938.243 173.486C938.543 168.686 938.343 165.586 937.743 165.586C937.143 165.586 931.743 166.686 925.643 168.086C909.143 171.686 905.943 173.786 906.043 180.886C906.143 184.186 906.843 185.586 909.843 188.286C913.043 191.186 914.043 191.586 919.143 191.586C922.843 191.586 926.343 190.886 929.143 189.486Z" fill="#269822"/>
<path d="M1174.44 207.486C1166.24 206.386 1156.74 201.786 1151.94 196.486C1136.44 179.286 1136.44 145.486 1151.94 128.786C1161.04 118.886 1173.54 114.586 1187.44 116.586C1208.74 119.586 1220.74 134.186 1222.14 158.886L1222.74 168.586H1163.24L1163.94 172.886C1164.94 178.886 1167.84 184.086 1172.04 187.286C1175.04 189.486 1176.94 190.086 1182.34 190.386C1190.24 190.786 1194.44 188.686 1197.14 183.086C1199.04 179.086 1199.64 178.986 1213.14 180.886L1221.34 182.086L1219.54 186.086C1211.94 202.586 1195.64 210.286 1174.44 207.486ZM1199.94 150.386C1198.24 139.886 1191.74 133.586 1182.64 133.586C1172.74 133.586 1165.64 139.986 1164.64 149.586L1164.14 154.586H1200.64L1199.94 150.386Z" fill="#269822"/>
<path d="M1261.24 207.586C1254.74 206.486 1249.84 203.186 1247.14 198.186C1245.04 194.286 1244.94 192.786 1244.64 164.886L1244.34 135.586H1233.44V117.586H1244.44V100.786L1255.74 94.1859L1266.94 87.5859L1267.54 117.586H1283.44V135.586H1267.44V160.386C1267.44 183.186 1267.64 185.386 1269.24 186.886C1271.34 188.786 1276.94 189.086 1280.84 187.586L1283.34 186.686L1284.14 194.886C1284.54 199.386 1284.94 203.486 1284.94 204.086C1284.94 206.486 1268.94 208.786 1261.24 207.586Z" fill="#269822"/>
<path d="M1469.94 207.586C1460.64 206.186 1452.24 200.186 1449.04 192.386C1446.54 186.386 1446.94 176.886 1450.04 170.786C1454.24 162.286 1460.94 158.686 1480.44 154.586C1485.64 153.486 1492.84 151.786 1496.34 150.886L1502.64 149.186L1502.14 144.286C1501.84 140.786 1501.04 138.686 1499.04 136.786C1496.54 134.286 1495.84 134.086 1486.84 134.086C1477.44 134.086 1477.24 134.086 1474.64 137.186C1473.14 138.886 1471.44 141.086 1470.84 142.086C1469.84 143.886 1469.24 143.886 1459.64 142.686C1454.04 141.986 1449.44 141.186 1449.44 140.886C1449.44 140.586 1450.84 137.586 1452.44 134.086C1457.64 123.086 1465.24 118.286 1479.64 116.686C1495.94 114.786 1510.84 117.886 1517.84 124.386C1523.54 129.786 1523.84 131.386 1524.54 164.086C1525.14 193.686 1525.44 196.386 1528.94 204.886C1529.64 206.486 1528.94 206.586 1518.34 206.386L1507.04 206.086L1505.74 201.686C1505.04 199.286 1504.24 197.086 1504.04 196.886C1503.74 196.586 1501.84 197.786 1499.74 199.486C1491.34 206.186 1480.44 209.186 1469.94 207.586ZM1493.14 189.486C1499.64 186.286 1501.74 182.786 1502.24 173.486C1502.54 168.686 1502.34 165.586 1501.74 165.586C1501.14 165.586 1495.74 166.686 1489.64 168.086C1473.14 171.686 1469.94 173.786 1470.04 180.886C1470.14 184.186 1470.84 185.586 1473.84 188.286C1477.04 191.186 1478.04 191.586 1483.14 191.586C1486.84 191.586 1490.34 190.886 1493.14 189.486Z" fill="#269822"/>
<path d="M1577.24 207.486C1560.84 205.086 1548.04 192.586 1544.34 175.486C1542.54 167.186 1543.64 148.186 1546.34 141.586C1553.94 122.986 1571.14 113.786 1593.24 116.586C1602.44 117.786 1608.04 120.186 1613.84 125.586C1617.94 129.386 1624.44 140.086 1624.44 143.086C1624.44 143.886 1621.24 144.786 1615.64 145.486C1602.84 147.086 1603.14 147.186 1600.94 142.386C1598.04 136.186 1593.64 133.586 1585.94 133.586C1572.84 133.586 1566.44 142.886 1566.44 161.886C1566.44 181.686 1573.74 191.286 1588.04 190.386C1593.44 190.086 1594.84 189.586 1597.44 187.086C1599.14 185.486 1601.24 181.986 1602.24 179.386C1604.14 173.886 1603.44 174.086 1616.94 175.686L1626.24 176.886L1624.94 181.186C1621.44 192.786 1612.24 202.486 1601.54 205.486C1593.34 207.886 1584.64 208.586 1577.24 207.486Z" fill="#269822"/>
<path d="M1671.44 207.486C1663.24 206.386 1653.74 201.786 1648.94 196.486C1633.44 179.286 1633.44 145.486 1648.94 128.786C1658.04 118.886 1670.54 114.586 1684.44 116.586C1705.74 119.586 1717.74 134.186 1719.14 158.886L1719.74 168.586H1660.24L1660.94 172.886C1661.94 178.886 1664.84 184.086 1669.04 187.286C1672.04 189.486 1673.94 190.086 1679.34 190.386C1687.24 190.786 1691.44 188.686 1694.14 183.086C1696.04 179.086 1696.64 178.986 1710.14 180.886L1718.34 182.086L1716.54 186.086C1708.94 202.586 1692.64 210.286 1671.44 207.486ZM1696.94 150.386C1695.24 139.886 1688.74 133.586 1679.64 133.586C1669.74 133.586 1662.64 139.986 1661.64 149.586L1661.14 154.586H1697.64L1696.94 150.386Z" fill="#269822"/>
<path d="M372.443 117.586H393.443L393.543 124.386C393.543 130.986 393.543 131.086 395.243 128.586C401.543 119.386 406.243 116.386 414.343 116.386C420.143 116.386 428.443 118.986 428.443 120.886C428.443 121.786 422.543 138.686 421.943 139.386C421.843 139.486 420.443 138.986 418.843 138.086C417.243 137.286 413.643 136.586 410.743 136.586C404.543 136.586 400.643 139.386 397.843 145.786C396.243 149.586 395.943 153.686 395.643 178.386L395.243 206.586H372.443V117.586Z" fill="black"/>
<path d="M744.443 83.5859H781.343L782.343 87.3859C798.643 148.686 803.643 167.086 803.943 167.486C804.243 167.686 804.643 167.286 804.843 166.486C805.643 164.386 826.443 84.8859 826.443 84.1859C826.443 83.8859 834.743 83.5859 844.943 83.5859H863.443V206.586H840.443L840.243 157.886L839.943 109.086L828.643 154.086C822.443 178.886 816.943 200.786 816.343 202.886L815.343 206.586H803.943C792.843 206.586 792.443 206.486 791.943 204.386C789.243 192.186 769.143 112.586 768.543 111.086C767.943 109.886 767.543 127.486 767.543 157.886L767.443 206.586H744.443V83.5859Z" fill="#269822"/>
<path d="M983.443 117.586H1004.44L1004.54 124.386C1004.54 130.986 1004.54 131.086 1006.24 128.586C1012.54 119.386 1017.24 116.386 1025.34 116.386C1031.14 116.386 1039.44 118.986 1039.44 120.886C1039.44 121.786 1033.54 138.686 1032.94 139.386C1032.84 139.486 1031.44 138.986 1029.84 138.086C1028.24 137.286 1024.64 136.586 1021.74 136.586C1015.54 136.586 1011.64 139.386 1008.84 145.786C1007.24 149.586 1006.94 153.686 1006.64 178.386L1006.24 206.586H983.443V117.586Z" fill="#269822"/>
<path d="M1050.44 83.5859H1073.44V116.086C1073.44 133.986 1073.74 148.586 1074.24 148.486C1074.64 148.486 1080.94 141.486 1088.34 132.986L1101.74 117.586H1129.64L1116.34 131.886C1108.94 139.686 1102.14 147.086 1101.14 148.186C1099.34 150.286 1099.54 150.786 1115.34 178.086C1124.24 193.386 1131.44 205.986 1131.44 206.286C1131.44 206.486 1126.04 206.486 1119.34 206.386L1107.24 206.086L1096.34 186.686C1090.34 175.986 1085.14 166.986 1084.94 166.686C1084.64 166.386 1081.94 168.686 1078.94 171.586L1073.44 176.986V206.586H1050.44V83.5859Z" fill="#269822"/>
<path d="M1405.44 83.5859H1428.44V206.586H1405.44V83.5859Z" fill="#269822"/>
<path d="M3.64296 230.087C2.04296 228.687 0.34296 226.487 0.0429601 225.087C-0.25704 223.787 1.04296 210.987 3.04296 196.887C4.94296 182.687 6.94296 168.387 7.44296 165.087C7.94296 161.787 8.74296 155.487 9.34296 151.087C9.94296 146.687 10.943 140.387 11.543 137.087C12.043 133.787 13.143 126.187 13.943 120.087C20.543 71.3866 23.343 54.2866 25.343 51.5866C28.643 46.9866 30.743 46.5866 50.443 46.5866H68.943L70.643 38.7866C72.843 27.6866 76.843 20.1866 83.843 13.2866C104.843 -7.21344 138.443 -3.51344 154.243 21.0866C157.343 25.8866 159.543 31.6866 161.143 38.8866L162.743 46.5866H181.343C198.143 46.5866 200.243 46.7866 203.243 48.5866C205.043 49.6866 206.943 51.5866 207.443 52.7866C208.543 55.4866 216.443 108.587 216.443 113.687C216.443 114.887 215.043 115.487 210.243 115.987C201.743 116.787 190.843 122.187 185.643 128.187C177.843 136.987 174.443 147.187 174.443 162.087C174.443 181.987 180.843 195.487 193.843 203.087C201.343 207.487 217.443 209.787 226.943 207.687L229.943 207.087L231.143 215.087C232.143 221.887 232.043 223.587 230.743 226.387C227.643 232.987 234.543 232.587 115.043 232.587H6.64296L3.64296 230.087ZM162.443 188.587H92.443V185.487C92.443 182.987 98.243 175.387 125.943 141.287L159.443 100.187V86.5866H75.443V101.587H132.443V104.587C132.443 107.087 126.643 114.787 100.443 146.887L68.443 186.087V203.587H162.443V188.587ZM132.743 37.3866C130.543 33.4866 128.343 31.1866 124.443 28.8866C117.043 24.3866 112.843 24.6866 105.043 29.9866C102.443 31.7866 96.443 39.9866 96.443 41.7866C96.443 42.1866 105.243 42.5866 116.043 42.5866H135.643L132.743 37.3866Z" fill="#269822"/>
<path d="M209.943 189.187C203.843 186.487 198.443 178.187 198.443 171.587V168.487L224.943 169.087L225.643 175.987C226.043 179.787 226.543 183.987 226.843 185.187C227.343 187.087 226.843 187.887 224.543 189.087C220.843 190.887 214.043 190.987 209.943 189.187Z" fill="#269822"/>
<path d="M198.743 150.087C200.043 140.687 205.843 134.587 214.443 133.787C219.943 133.287 219.743 132.987 220.943 143.087C221.243 145.887 221.843 149.587 222.143 151.387L222.643 154.587H198.143L198.743 150.087Z" fill="#269822"/>
<path d="M65.4434 183.086L129.043 105.086L100.743 104.786L72.4434 104.586V83.5859H162.443V103.186L95.7434 185.086L130.643 185.386L165.443 185.586V206.586H65.4434V183.086Z" fill="white"/>
<path d="M92.4434 43.3859C92.5434 37.0859 99.1434 27.8859 105.943 24.6859C112.943 21.3859 120.743 21.7859 127.443 25.8859C131.943 28.4859 133.443 30.1859 136.143 35.3859C141.743 46.2859 143.143 45.5859 115.943 45.5859H92.4434V43.3859Z" fill="white"/>
</svg>
